<svg width="153" height="52" viewBox="0 0 153 52" fill="none" xmlns="http://www.w3.org/2000/svg">
<path d="M1.32031 50.0707L18.3774 33.0137H150.432" stroke="#416288" stroke-width="3"/>
<path d="M53.3067 4.366V17.162H54.7767V4.366H53.3067ZM54.4407 9.28V10.512H56.7647V9.28H54.4407ZM45.3127 5.416V14.138H51.3887V5.416H49.9327V8.678H46.7687V5.416H45.3127ZM46.7687 9.826H49.9327V12.948H46.7687V9.826ZM57.7296 11.618V12.808H69.3216V11.618H57.7296ZM62.7556 12.374V17.162H64.2116V12.374H62.7556ZM63.4976 4.842C60.8096 4.842 58.9616 5.948 58.9616 7.684C58.9616 9.406 60.8096 10.512 63.4976 10.512C66.1996 10.512 68.0336 9.406 68.0336 7.684C68.0336 5.948 66.1996 4.842 63.4976 4.842ZM63.4976 6.018C65.3316 6.018 66.5356 6.648 66.5356 7.684C66.5356 8.72 65.3316 9.336 63.4976 9.336C61.6636 9.336 60.4596 8.72 60.4596 7.684C60.4596 6.648 61.6636 6.018 63.4976 6.018ZM79.7645 4.352V17.176H81.2345V4.352H79.7645ZM77.2305 9.392V10.596H80.1425V9.392H77.2305ZM73.7445 7.53V8.44C73.7445 10.512 72.5545 12.682 70.5945 13.606L71.3925 14.74C73.5625 13.718 74.8925 11.128 74.8925 8.44V7.53H73.7445ZM74.0385 7.53V8.44C74.0385 11.044 75.3965 13.536 77.5805 14.516L78.3645 13.396C76.4045 12.5 75.1865 10.428 75.1865 8.44V7.53H74.0385ZM70.9865 6.522V7.698H77.9025V6.522H70.9865ZM73.7305 4.632V7.152H75.2005V4.632H73.7305ZM89.894 6.284V8.076C89.894 10.26 88.564 12.654 86.59 13.564L87.43 14.726C89.628 13.676 91.07 10.89 91.07 8.076V6.284H89.894ZM90.202 6.284V8.076C90.202 10.82 91.644 13.41 93.87 14.404L94.682 13.242C92.68 12.402 91.364 10.19 91.364 8.076V6.284H90.202ZM87.052 5.64V6.858H94.206V5.64H87.052ZM95.704 4.366V17.162H97.174V4.366H95.704ZM100.967 11.674V17.008H109.647V11.674H108.191V13.2H102.409V11.674H100.967ZM102.409 14.348H108.191V15.832H102.409V14.348ZM100.967 4.912V6.102H109.143V4.912H100.967ZM99.5249 9.476V10.666H111.117V9.476H99.5249ZM108.233 4.912V5.892C108.233 6.956 108.233 8.146 107.827 9.84L109.297 9.77C109.675 8.104 109.675 6.942 109.675 5.892V4.912H108.233Z" fill="#416288"/>
<path d="M143.829 26.4111L150.432 33.0139L143.829 39.6166" stroke="#416288" stroke-width="3"/>
</svg>
