<svg width="153" height="52" viewBox="0 0 153 52" fill="none" xmlns="http://www.w3.org/2000/svg">
<path d="M1.55078 50.0707L18.6079 33.0137H150.663" stroke="#416288" stroke-width="3"/>
<path d="M55.7364 4.366V17.162H57.2064V4.366H55.7364ZM56.8704 9.28V10.512H59.1944V9.28H56.8704ZM47.7424 5.416V14.138H53.8184V5.416H52.3624V8.678H49.1984V5.416H47.7424ZM49.1984 9.826H52.3624V12.948H49.1984V9.826ZM60.1593 11.618V12.808H71.7513V11.618H60.1593ZM65.1853 12.374V17.162H66.6413V12.374H65.1853ZM65.9273 4.842C63.2393 4.842 61.3913 5.948 61.3913 7.684C61.3913 9.406 63.2393 10.512 65.9273 10.512C68.6293 10.512 70.4633 9.406 70.4633 7.684C70.4633 5.948 68.6293 4.842 65.9273 4.842ZM65.9273 6.018C67.7613 6.018 68.9653 6.648 68.9653 7.684C68.9653 8.72 67.7613 9.336 65.9273 9.336C64.0933 9.336 62.8893 8.72 62.8893 7.684C62.8893 6.648 64.0933 6.018 65.9273 6.018ZM82.1942 4.352V17.176H83.6642V4.352H82.1942ZM79.6602 9.392V10.596H82.5722V9.392H79.6602ZM76.1742 7.53V8.44C76.1742 10.512 74.9842 12.682 73.0242 13.606L73.8222 14.74C75.9922 13.718 77.3222 11.128 77.3222 8.44V7.53H76.1742ZM76.4682 7.53V8.44C76.4682 11.044 77.8262 13.536 80.0102 14.516L80.7942 13.396C78.8342 12.5 77.6162 10.428 77.6162 8.44V7.53H76.4682ZM73.4162 6.522V7.698H80.3322V6.522H73.4162ZM76.1602 4.632V7.152H77.6302V4.632H76.1602ZM92.0856 5.416V7.516C92.0856 9.882 90.8396 12.332 88.8516 13.298L89.7476 14.474C91.9456 13.354 93.2756 10.498 93.2756 7.516V5.416H92.0856ZM92.3656 5.416V7.516C92.3656 10.4 93.6396 13.13 95.7676 14.236L96.6636 13.074C94.7456 12.122 93.5416 9.798 93.5416 7.516V5.416H92.3656ZM97.5176 4.366V17.162H98.9876V4.366H97.5176ZM98.6516 9.434V10.652H100.976V9.434H98.6516ZM104.685 8.678V11.058H106.141V8.678H104.685ZM109.291 8.678V11.058H110.747V8.678H109.291ZM101.941 10.582V11.744H113.505V10.582H101.941ZM107.709 12.57C104.951 12.57 103.299 13.396 103.299 14.852C103.299 16.322 104.951 17.148 107.709 17.148C110.453 17.148 112.119 16.322 112.119 14.852C112.119 13.396 110.453 12.57 107.709 12.57ZM107.709 13.69C109.585 13.69 110.635 14.096 110.635 14.852C110.635 15.622 109.585 16.028 107.709 16.028C105.833 16.028 104.783 15.622 104.783 14.852C104.783 14.096 105.833 13.69 107.709 13.69ZM107.723 4.576C104.923 4.576 103.173 5.486 103.173 6.998C103.173 8.51 104.923 9.392 107.723 9.392C110.523 9.392 112.287 8.51 112.287 6.998C112.287 5.486 110.523 4.576 107.723 4.576ZM107.723 5.71C109.641 5.71 110.775 6.158 110.775 6.998C110.775 7.824 109.641 8.272 107.723 8.272C105.819 8.272 104.685 7.824 104.685 6.998C104.685 6.158 105.819 5.71 107.723 5.71Z" fill="#416288"/>
<path d="M144.06 26.4111L150.662 33.0139L144.06 39.6166" stroke="#416288" stroke-width="3"/>
</svg>
