<svg width="72" height="153" viewBox="0 0 72 153" fill="none" xmlns="http://www.w3.org/2000/svg">
<path d="M1.58843 1.32226L18.6455 18.3793L18.6455 150.434" stroke="#416288" stroke-width="3"/>
<path d="M42.2657 56.366V69.162H43.7357V56.366H42.2657ZM43.3997 61.28V62.512H45.7237V61.28H43.3997ZM34.2717 57.416V66.138H40.3477V57.416H38.8917V60.678H35.7277V57.416H34.2717ZM35.7277 61.826H38.8917V64.948H35.7277V61.826ZM46.6886 63.618V64.808H58.2806V63.618H46.6886ZM51.7146 64.374V69.162H53.1706V64.374H51.7146ZM52.4566 56.842C49.7686 56.842 47.9206 57.948 47.9206 59.684C47.9206 61.406 49.7686 62.512 52.4566 62.512C55.1586 62.512 56.9926 61.406 56.9926 59.684C56.9926 57.948 55.1586 56.842 52.4566 56.842ZM52.4566 58.018C54.2906 58.018 55.4946 58.648 55.4946 59.684C55.4946 60.72 54.2906 61.336 52.4566 61.336C50.6226 61.336 49.4186 60.72 49.4186 59.684C49.4186 58.648 50.6226 58.018 52.4566 58.018ZM68.7235 56.352V69.176H70.1935V56.352H68.7235ZM66.1895 61.392V62.596H69.1015V61.392H66.1895ZM62.7035 59.53V60.44C62.7035 62.512 61.5135 64.682 59.5535 65.606L60.3515 66.74C62.5215 65.718 63.8515 63.128 63.8515 60.44V59.53H62.7035ZM62.9975 59.53V60.44C62.9975 63.044 64.3555 65.536 66.5395 66.516L67.3235 65.396C65.3635 64.5 64.1455 62.428 64.1455 60.44V59.53H62.9975ZM59.9455 58.522V59.698H66.8615V58.522H59.9455ZM62.6895 56.632V59.152H64.1595V56.632H62.6895ZM43.5111 78.284V80.076C43.5111 82.26 42.1811 84.654 40.2071 85.564L41.0471 86.726C43.2451 85.676 44.6871 82.89 44.6871 80.076V78.284H43.5111ZM43.8191 78.284V80.076C43.8191 82.82 45.2611 85.41 47.4871 86.404L48.2991 85.242C46.2971 84.402 44.9811 82.19 44.9811 80.076V78.284H43.8191ZM40.6691 77.64V78.858H47.8231V77.64H40.6691ZM49.3211 76.366V89.162H50.7911V76.366H49.3211ZM54.584 83.674V89.008H63.264V83.674H61.808V85.2H56.026V83.674H54.584ZM56.026 86.348H61.808V87.832H56.026V86.348ZM54.584 76.912V78.102H62.76V76.912H54.584ZM53.142 81.476V82.666H64.734V81.476H53.142ZM61.85 76.912V77.892C61.85 78.956 61.85 80.146 61.444 81.84L62.914 81.77C63.292 80.104 63.292 78.942 63.292 77.892V76.912H61.85Z" fill="#416288"/>
<path d="M25.249 143.831L18.6463 150.434L12.0435 143.831" stroke="#416288" stroke-width="3"/>
</svg>
