<svg width="72" height="153" viewBox="0 0 72 153" fill="none" xmlns="http://www.w3.org/2000/svg">
<path d="M1.59038 1.32226L18.6475 18.3793L18.6475 150.434" stroke="#416288" stroke-width="3"/>
<path d="M42.2676 56.366V69.162H43.7376V56.366H42.2676ZM43.4016 61.28V62.512H45.7256V61.28H43.4016ZM34.2736 57.416V66.138H40.3496V57.416H38.8936V60.678H35.7296V57.416H34.2736ZM35.7296 61.826H38.8936V64.948H35.7296V61.826ZM46.6905 63.618V64.808H58.2825V63.618H46.6905ZM51.7165 64.374V69.162H53.1725V64.374H51.7165ZM52.4585 56.842C49.7705 56.842 47.9225 57.948 47.9225 59.684C47.9225 61.406 49.7705 62.512 52.4585 62.512C55.1605 62.512 56.9945 61.406 56.9945 59.684C56.9945 57.948 55.1605 56.842 52.4585 56.842ZM52.4585 58.018C54.2925 58.018 55.4965 58.648 55.4965 59.684C55.4965 60.72 54.2925 61.336 52.4585 61.336C50.6245 61.336 49.4205 60.72 49.4205 59.684C49.4205 58.648 50.6245 58.018 52.4585 58.018ZM68.7255 56.352V69.176H70.1955V56.352H68.7255ZM66.1915 61.392V62.596H69.1035V61.392H66.1915ZM62.7055 59.53V60.44C62.7055 62.512 61.5155 64.682 59.5555 65.606L60.3535 66.74C62.5235 65.718 63.8535 63.128 63.8535 60.44V59.53H62.7055ZM62.9995 59.53V60.44C62.9995 63.044 64.3575 65.536 66.5415 66.516L67.3255 65.396C65.3655 64.5 64.1475 62.428 64.1475 60.44V59.53H62.9995ZM59.9475 58.522V59.698H66.8635V58.522H59.9475ZM62.6915 56.632V59.152H64.1615V56.632H62.6915ZM43.2751 77.416V79.516C43.2751 81.882 42.0291 84.332 40.0411 85.298L40.9371 86.474C43.1351 85.354 44.4651 82.498 44.4651 79.516V77.416H43.2751ZM43.5551 77.416V79.516C43.5551 82.4 44.8291 85.13 46.9571 86.236L47.8531 85.074C45.9351 84.122 44.7311 81.798 44.7311 79.516V77.416H43.5551ZM48.7071 76.366V89.162H50.1771V76.366H48.7071ZM49.8411 81.434V82.652H52.1651V81.434H49.8411ZM55.874 80.678V83.058H57.33V80.678H55.874ZM60.48 80.678V83.058H61.936V80.678H60.48ZM53.13 82.582V83.744H64.694V82.582H53.13ZM58.898 84.57C56.14 84.57 54.488 85.396 54.488 86.852C54.488 88.322 56.14 89.148 58.898 89.148C61.642 89.148 63.308 88.322 63.308 86.852C63.308 85.396 61.642 84.57 58.898 84.57ZM58.898 85.69C60.774 85.69 61.824 86.096 61.824 86.852C61.824 87.622 60.774 88.028 58.898 88.028C57.022 88.028 55.972 87.622 55.972 86.852C55.972 86.096 57.022 85.69 58.898 85.69ZM58.912 76.576C56.112 76.576 54.362 77.486 54.362 78.998C54.362 80.51 56.112 81.392 58.912 81.392C61.712 81.392 63.476 80.51 63.476 78.998C63.476 77.486 61.712 76.576 58.912 76.576ZM58.912 77.71C60.83 77.71 61.964 78.158 61.964 78.998C61.964 79.824 60.83 80.272 58.912 80.272C57.008 80.272 55.874 79.824 55.874 78.998C55.874 78.158 57.008 77.71 58.912 77.71Z" fill="#416288"/>
<path d="M25.251 143.831L18.6482 150.434L12.0455 143.831" stroke="#416288" stroke-width="3"/>
</svg>
