<svg width="6" height="11" viewBox="0 0 6 11" fill="none" xmlns="http://www.w3.org/2000/svg">
<path d="M1.31561 9.07951C0.79099 8.92765 0.372218 8.72977 0.0546875 8.48587L0.611517 7.25256C0.915241 7.47345 1.27419 7.65293 1.69296 7.79098C2.11173 7.92444 2.5305 7.99347 2.94928 7.99347C3.41407 7.99347 3.75921 7.92444 3.9801 7.78638C4.20099 7.64832 4.31604 7.46425 4.31604 7.23415C4.31604 7.06388 4.25161 6.92583 4.11816 6.81538C3.9847 6.70494 3.81903 6.6129 3.61195 6.54847C3.40486 6.48405 3.12875 6.40581 2.77901 6.32758C2.24058 6.19873 1.7988 6.06988 1.45366 5.94102C1.10852 5.81217 0.814 5.60509 0.565497 5.32437C0.316995 5.03905 0.197346 4.6617 0.197346 4.1923C0.197346 3.78274 0.307792 3.40538 0.533284 3.07405C0.754175 2.73811 1.09011 2.4758 1.5411 2.27792C1.99208 2.08464 2.53971 1.9834 3.18857 1.9834C3.63956 1.9834 4.08134 2.03862 4.51392 2.14446C4.9465 2.25031 5.32385 2.40677 5.64598 2.60926L5.13977 3.85637C4.48631 3.48361 3.82824 3.29954 3.17477 3.29954C2.71458 3.29954 2.37864 3.37317 2.15775 3.52043C1.93686 3.66769 1.83102 3.86557 1.83102 4.10947C1.83102 4.35337 1.95987 4.53284 2.21297 4.65249C2.46608 4.77214 2.85264 4.88719 3.37265 5.00224C3.91107 5.13109 4.35285 5.25994 4.69799 5.3888C5.04314 5.51765 5.33766 5.72013 5.58156 5.99625C5.83006 6.27236 5.94971 6.64971 5.94971 7.11911C5.94971 7.52407 5.83466 7.89222 5.60917 8.22816C5.38368 8.5641 5.04314 8.82641 4.59215 9.02429C4.14117 9.22217 3.58894 9.31881 2.94007 9.31881C2.37864 9.30961 1.83562 9.23137 1.31561 9.07951Z" fill="white"/>
<path fill-rule="evenodd" clip-rule="evenodd" d="M2 10.4047V8.95508H3.5V10.4047H2Z" fill="white"/>
<path fill-rule="evenodd" clip-rule="evenodd" d="M2 2.30506V0.855469H3.5V2.30506H2Z" fill="white"/>
</svg>
