<svg width="55" height="77" viewBox="0 0 55 77" fill="none" xmlns="http://www.w3.org/2000/svg">
<g clip-path="url(#clip0_753_2941)">
<path d="M47.322 2.6123H7.64746V10.914H47.322V2.6123Z" fill="#35AF8B"/>
<path d="M2.02441 74.8422V15.1162H52.9468V74.8422H2.02441Z" fill="white" stroke="#35AF8B" stroke-width="3"/>
<path d="M14.9039 34.5254H11.6025V37.8268H14.9039V34.5254Z" fill="#35AF8B"/>
<path d="M21.4332 34.5254H18.1318V37.8268H21.4332V34.5254Z" fill="#35AF8B"/>
<path d="M44.5426 34.5254H24.7344V37.8268H44.5426V34.5254Z" fill="#35AF8B"/>
<path d="M44.543 43.3291H36.8398V46.6305H44.543V43.3291Z" fill="#35AF8B"/>
<path d="M44.543 25.7217H11.5293V29.0231H44.543V25.7217Z" fill="#35AF8B"/>
<path d="M29.8823 60.4593V74.843H13.0293V60.4593C13.0293 55.8321 16.7964 52.0713 21.4558 52.0713C26.1153 52.0713 29.8823 55.8321 29.8823 60.4593Z" fill="white" stroke="#35AF8B" stroke-width="3"/>
</g>
<defs>
<clipPath id="clip0_753_2941">
<rect width="53.9224" height="75.9315" fill="white" transform="translate(0.524414 0.411133)"/>
</clipPath>
</defs>
</svg>
