<svg width="21" height="16" viewBox="0 0 21 16" fill="none" xmlns="http://www.w3.org/2000/svg">
<g clip-path="url(#clip0_877_969)">
<path d="M17.6702 0H3.98781C2.24244 0 0.830566 1.35136 0.830566 3.01389V10.1648C0.830566 11.8274 2.24244 13.1787 3.98781 13.1787H8.7034L10.3116 15.6681C10.3116 15.6681 10.3272 15.7007 10.3615 15.7392C10.455 15.8933 10.6295 15.997 10.829 15.997C11.0285 15.997 11.1999 15.8933 11.2934 15.7422C11.3339 15.6977 11.3495 15.6681 11.3495 15.6681L12.9577 13.1787H17.6702C19.4156 13.1787 20.8306 11.8303 20.8306 10.1648V3.01389C20.8306 1.35136 19.4156 0 17.6702 0Z" fill="#DADADA"/>
<path d="M5.27196 5.23946C5.27196 5.23946 4.72653 5.23946 4.22786 5.69881V3.85254H3.0061V8.70084H4.24344V8.32151C4.24344 8.32151 4.53641 8.82531 5.27196 8.82531C5.27196 8.82531 6.99551 8.76308 6.99551 7.01164C6.99862 7.01164 6.93317 5.23946 5.27196 5.23946ZM5.00392 7.79994C4.5707 7.79994 4.21851 7.46506 4.21851 7.05313C4.21851 6.63824 4.5707 6.30633 5.00392 6.30633C5.43715 6.30633 5.78933 6.6412 5.78933 7.05313C5.78933 7.46506 5.43715 7.79994 5.00392 7.79994Z" fill="#303030"/>
<path d="M7.39136 3.74292V4.86609C7.39136 4.86609 7.94925 4.84238 7.94925 5.8322V8.70087H9.13049V5.56548C9.13049 5.56548 9.18036 3.74292 7.39136 3.74292Z" fill="#303030"/>
<path d="M12.0164 5.25732C12.0164 5.25732 9.99364 5.25732 9.99364 7.05321C9.99364 7.05321 9.92818 8.82539 12.0164 8.82539C12.0164 8.82539 14.0859 8.82243 14.0859 7.05321C14.0859 7.05321 14.1545 5.25732 12.0164 5.25732ZM12.0164 7.80002C11.58 7.80002 11.231 7.46514 11.231 7.05321C11.231 6.63832 11.5832 6.30641 12.0164 6.30641C12.4496 6.30641 12.8018 6.64128 12.8018 7.05321C12.8018 7.46514 12.4496 7.80002 12.0164 7.80002Z" fill="#303030"/>
<path d="M17.4645 5.36984V5.69879C17.4645 5.69879 17.1124 5.25427 16.436 5.25427C16.436 5.25427 14.7031 5.18314 14.7031 7.0383C14.7031 7.0383 14.6844 8.76603 16.3862 8.76603C16.3862 8.76603 17.0812 8.7927 17.4614 8.3215V8.59414C17.4614 8.59414 17.5487 9.44467 16.6823 9.44467H16.3862V10.476H16.863C16.863 10.476 18.652 10.4938 18.652 8.65934V5.36984H17.4645ZM16.7321 7.79992C16.2989 7.79992 15.9436 7.46505 15.9436 7.05312C15.9436 6.63823 16.2958 6.30631 16.7321 6.30631C17.1653 6.30631 17.5175 6.64119 17.5175 7.05312C17.5175 7.46505 17.1685 7.79992 16.7321 7.79992Z" fill="#303030"/>
</g>
<defs>
<clipPath id="clip0_877_969">
<rect width="20" height="16" fill="white" transform="translate(0.830566)"/>
</clipPath>
</defs>
</svg>
