<svg width="15" height="20" viewBox="0 0 15 20" fill="none" xmlns="http://www.w3.org/2000/svg">
<path d="M13.8998 14.3265C13.9616 14.1736 13.8094 14.0262 13.7236 13.8854L12.2594 11.4819C12.2576 11.479 12.2553 11.476 12.2525 11.474V11.474C12.2417 11.4666 12.2362 11.4557 12.2375 11.4427C12.2465 11.3459 12.2496 11.2489 12.2496 11.1487V7.51021C12.2532 4.83673 10.1069 2.67078 7.45764 2.67078C4.80842 2.67078 2.65858 4.83673 2.65858 7.51021V11.2524V11.2524C2.65858 11.4434 2.62011 11.6334 2.52202 11.7973L1.27212 13.8856C1.18934 14.0239 1.04269 14.1665 1.09753 14.3181C1.12592 14.3966 1.19863 14.4584 1.29624 14.4584H1.35999H5.83552H6.93701H7.00076H8.05974H8.96996H13.7005C13.7971 14.4602 13.8694 14.4018 13.8998 14.3265Z" stroke="white" stroke-width="2" stroke-linejoin="round"/>
<mask id="path-2-inside-1_427_1304" fill="white">
<path d="M4.50049 16.5C4.50049 18.1566 5.84392 19.5 7.50049 19.5C9.15705 19.5 10.5005 18.1566 10.5005 16.5"/>
</mask>
<path d="M2.50049 16.5C2.50049 19.2611 4.73935 21.5 7.50049 21.5V17.5C6.94849 17.5 6.50049 17.052 6.50049 16.5H2.50049ZM7.50049 21.5C10.2616 21.5 12.5005 19.2611 12.5005 16.5H8.50049C8.50049 17.052 8.05248 17.5 7.50049 17.5V21.5Z" fill="white" mask="url(#path-2-inside-1_427_1304)"/>
<path d="M9.06299 2.06104C9.06299 1.19908 8.36397 0.50006 7.50201 0.50006C6.64006 0.50006 5.94104 1.19908 5.94104 2.06103" fill="white"/>
</svg>
