<svg width="159" height="44" viewBox="0 0 159 44" fill="none" xmlns="http://www.w3.org/2000/svg">
<path d="M157.089 17.902L138.931 36.0596H2.5706" stroke="#CB5A5A" stroke-width="3"/>
<path d="M22.2341 5.63073V6.28873C22.2341 7.96873 20.3301 9.56473 17.7401 9.92873L18.3141 11.1187C21.2681 10.6427 23.5221 8.73873 23.5221 6.28873V5.63073H22.2341ZM22.5001 5.63073V6.28873C22.5001 8.72473 24.7541 10.6427 27.7081 11.1187L28.2821 9.92873C25.6921 9.56473 23.7741 7.94073 23.7741 6.28873V5.63073H22.5001ZM22.2341 13.2187V18.0067H23.6901V13.2187H22.2341ZM17.2221 12.2947V13.4987H28.7861V12.2947H17.2221ZM35.141 11.6367V13.5407H36.597V11.6367H35.141ZM30.115 10.7827V11.8747H41.637V10.7827H30.115ZM35.141 5.16873V6.70873H36.597V5.16873H35.141ZM35.057 6.80673V7.03073C35.057 8.19273 33.419 9.07473 30.647 9.21473L31.053 10.3207C34.203 10.1107 36.345 8.96273 36.345 7.03073V6.80673H35.057ZM35.393 6.80673V7.03073C35.393 8.96273 37.535 10.1107 40.671 10.3207L41.091 9.21473C38.319 9.07473 36.681 8.19273 36.681 7.03073V6.80673H35.393ZM31.235 6.27473V7.36673H40.503V6.27473H31.235ZM31.459 12.8687V13.9467H38.767V14.8287H31.473V17.2367H32.929V15.8367H40.209V12.8687H31.459ZM31.473 16.8027V17.8947H40.573V16.8027H31.473ZM51.4219 5.21073V18.0067H52.8919V5.21073H51.4219ZM52.5559 10.1247V11.3567H54.8799V10.1247H52.5559ZM43.4279 6.26073V14.9827H49.5039V6.26073H48.0479V9.52273H44.8839V6.26073H43.4279ZM44.8839 10.6707H48.0479V13.7927H44.8839V10.6707ZM55.8448 12.4627V13.6527H67.4368V12.4627H55.8448ZM60.8708 13.2187V18.0067H62.3268V13.2187H60.8708ZM61.6128 5.68673C58.9248 5.68673 57.0768 6.79273 57.0768 8.52873C57.0768 10.2507 58.9248 11.3567 61.6128 11.3567C64.3148 11.3567 66.1488 10.2507 66.1488 8.52873C66.1488 6.79273 64.3148 5.68673 61.6128 5.68673ZM61.6128 6.86273C63.4468 6.86273 64.6508 7.49273 64.6508 8.52873C64.6508 9.56473 63.4468 10.1807 61.6128 10.1807C59.7788 10.1807 58.5748 9.56473 58.5748 8.52873C58.5748 7.49273 59.7788 6.86273 61.6128 6.86273ZM77.8798 5.19673V18.0207H79.3498V5.19673H77.8798ZM75.3458 10.2367V11.4407H78.2578V10.2367H75.3458ZM71.8598 8.37473V9.28473C71.8598 11.3567 70.6698 13.5267 68.7098 14.4507L69.5078 15.5847C71.6778 14.5627 73.0078 11.9727 73.0078 9.28473V8.37473H71.8598ZM72.1538 8.37473V9.28473C72.1538 11.8887 73.5118 14.3807 75.6958 15.3607L76.4798 14.2407C74.5198 13.3447 73.3018 11.2727 73.3018 9.28473V8.37473H72.1538ZM69.1018 7.36673V8.54273H76.0178V7.36673H69.1018ZM71.8458 5.47673V7.99673H73.3158V5.47673H71.8458ZM87.7712 6.26073V8.36073C87.7712 10.7267 86.5252 13.1767 84.5372 14.1427L85.4332 15.3187C87.6312 14.1987 88.9612 11.3427 88.9612 8.36073V6.26073H87.7712ZM88.0512 6.26073V8.36073C88.0512 11.2447 89.3252 13.9747 91.4532 15.0807L92.3492 13.9187C90.4312 12.9667 89.2272 10.6427 89.2272 8.36073V6.26073H88.0512ZM93.2032 5.21073V18.0067H94.6732V5.21073H93.2032ZM94.3372 10.2787V11.4967H96.6612V10.2787H94.3372ZM104.08 8.16473V9.35473H107.412V8.16473H104.08ZM101.14 5.77073C99.2221 5.77073 97.8081 7.01673 97.8081 8.78073C97.8081 10.5447 99.2221 11.7767 101.14 11.7767C103.058 11.7767 104.472 10.5447 104.472 8.78073C104.472 7.01673 103.058 5.77073 101.14 5.77073ZM101.14 7.00273C102.26 7.00273 103.058 7.70273 103.058 8.78073C103.058 9.84473 102.26 10.5587 101.14 10.5587C100.02 10.5587 99.2081 9.84473 99.2081 8.78073C99.2081 7.70273 100.02 7.00273 101.14 7.00273ZM106.768 5.21073V12.0847H108.238V5.21073H106.768ZM99.9081 12.6867V17.8527H108.238V12.6867H106.782V14.1147H101.364V12.6867H99.9081ZM101.364 15.2627H106.782V16.6767H101.364V15.2627ZM122.736 5.22473V14.5767H124.206V5.22473H122.736ZM115.848 16.5647V17.7547H124.57V16.5647H115.848ZM115.848 13.6947V17.1527H117.318V13.6947H115.848ZM116.842 5.92473V7.19873C116.842 9.04673 115.736 10.8807 113.706 11.6227L114.462 12.7987C116.758 11.9307 118.06 9.69073 118.06 7.19873V5.92473H116.842ZM117.122 5.92473V7.19873C117.122 9.64873 118.41 11.7487 120.664 12.5607L121.42 11.3987C119.432 10.7127 118.326 9.00473 118.326 7.19873V5.92473H117.122ZM129.58 7.42273V7.92673C129.58 9.53673 128.474 11.0487 126.514 11.6507L127.214 12.7987C129.482 12.0847 130.77 10.1527 130.77 7.92673V7.42273H129.58ZM129.846 7.42273V7.92673C129.846 10.0267 131.19 11.8187 133.486 12.4767L134.144 11.3287C132.184 10.7827 131.05 9.39673 131.05 7.92673V7.42273H129.846ZM126.892 6.65273V7.82873H133.738V6.65273H126.892ZM129.58 5.15473V7.10073H131.05V5.15473H129.58ZM133.36 8.75273V9.94273H136.048V8.75273H133.36ZM135.67 5.21073V12.9527H137.14V5.21073H135.67ZM132.87 13.2327C130.196 13.2327 128.558 14.1007 128.558 15.6127C128.558 17.1107 130.196 17.9927 132.87 17.9927C135.544 17.9927 137.182 17.1107 137.182 15.6127C137.182 14.1007 135.544 13.2327 132.87 13.2327ZM132.87 14.3667C134.69 14.3667 135.726 14.8007 135.726 15.6127C135.726 16.4107 134.69 16.8587 132.87 16.8587C131.05 16.8587 130.014 16.4107 130.014 15.6127C130.014 14.8007 131.05 14.3667 132.87 14.3667Z" fill="#CB5A5A"/>
<path d="M9.17285 42.6621L2.57011 36.0594L9.17285 29.4566" stroke="#CB5A5A" stroke-width="3"/>
</svg>
