<svg width="152" height="44" viewBox="0 0 152 44" fill="none" xmlns="http://www.w3.org/2000/svg">
<path d="M1.10156 17.902L19.2591 36.0596H148.013" stroke="#CB5A5A" stroke-width="3"/>
<path d="M143.061 42.6621L149.663 36.0594L143.061 29.4566" stroke="#CB5A5A" stroke-width="3"/>
<path d="M52.7083 9.39673V10.5867H56.1803V9.39673H52.7083ZM49.4463 6.26073V8.36073C49.4463 10.7547 48.2143 13.2187 46.1983 14.1847L47.1223 15.3607C49.3203 14.2267 50.6363 11.3707 50.6363 8.36073V6.26073H49.4463ZM49.7403 6.26073V8.36073C49.7403 11.3287 51.0143 14.0307 53.2263 15.1367L54.1083 13.9607C52.1343 13.0507 50.9163 10.7267 50.9163 8.36073V6.26073H49.7403ZM55.4523 5.19673V18.0207H56.9083V5.19673H55.4523ZM68.2333 5.19673V18.0207H69.7033V5.19673H68.2333ZM59.8473 6.26073V14.9827H65.9933V6.26073H64.5373V9.52273H61.3033V6.26073H59.8473ZM61.3033 10.6707H64.5373V13.7927H61.3033V10.6707ZM77.0102 6.02273V6.98873C77.0102 9.00473 74.9662 10.9927 72.4322 11.4547L73.0762 12.6727C75.9602 12.0567 78.2842 9.76073 78.2842 6.98873V6.02273H77.0102ZM77.2902 6.02273V6.98873C77.2902 9.78873 79.6142 12.0567 82.4982 12.6727L83.1422 11.4547C80.6082 10.9927 78.5642 9.03273 78.5642 6.98873V6.02273H77.2902ZM72.0542 15.1507V16.3547H83.6462V15.1507H72.0542ZM97.1496 5.22473V14.5767H98.6196V5.22473H97.1496ZM90.2616 16.5647V17.7547H98.9836V16.5647H90.2616ZM90.2616 13.6947V17.1527H91.7316V13.6947H90.2616ZM91.2556 5.92473V7.19873C91.2556 9.04673 90.1496 10.8807 88.1196 11.6227L88.8756 12.7987C91.1716 11.9307 92.4736 9.69073 92.4736 7.19873V5.92473H91.2556ZM91.5356 5.92473V7.19873C91.5356 9.64873 92.8236 11.7487 95.0776 12.5607L95.8336 11.3987C93.8456 10.7127 92.7396 9.00473 92.7396 7.19873V5.92473H91.5356ZM103.995 7.42273V7.92673C103.995 9.53673 102.889 11.0487 100.929 11.6507L101.629 12.7987C103.897 12.0847 105.185 10.1527 105.185 7.92673V7.42273H103.995ZM104.261 7.42273V7.92673C104.261 10.0267 105.605 11.8187 107.901 12.4767L108.559 11.3287C106.599 10.7827 105.465 9.39673 105.465 7.92673V7.42273H104.261ZM101.307 6.65273V7.82873H108.153V6.65273H101.307ZM103.995 5.15473V7.10073H105.465V5.15473H103.995ZM107.775 8.75273V9.94273H110.463V8.75273H107.775ZM110.085 5.21073V12.9527H111.555V5.21073H110.085ZM107.285 13.2327C104.611 13.2327 102.973 14.1007 102.973 15.6127C102.973 17.1107 104.611 17.9927 107.285 17.9927C109.959 17.9927 111.597 17.1107 111.597 15.6127C111.597 14.1007 109.959 13.2327 107.285 13.2327ZM107.285 14.3667C109.105 14.3667 110.141 14.8007 110.141 15.6127C110.141 16.4107 109.105 16.8587 107.285 16.8587C105.465 16.8587 104.428 16.4107 104.428 15.6127C104.428 14.8007 105.465 14.3667 107.285 14.3667Z" fill="#CB5A5A"/>
</svg>
