<svg width="67" height="79" viewBox="0 0 67 79" fill="none" xmlns="http://www.w3.org/2000/svg">
<g clip-path="url(#clip0_753_2913)">
<path d="M66.3786 1.51172H22.3604V77.4432H66.3786V1.51172Z" fill="#578C76"/>
<path d="M49.7634 75.907H3.18457V19.5186H49.7634V75.907Z" fill="white" stroke="#578C76" stroke-width="3"/>
<path d="M28.9638 35.626H11.3564V38.9273H28.9638V35.626Z" fill="#578C76"/>
<path d="M42.1692 27.9229H11.3564V31.2242H42.1692V27.9229Z" fill="#578C76"/>
<path d="M59.7767 9.21484H28.9639V12.5162H59.7767V9.21484Z" fill="white"/>
<path d="M35.566 35.6289H32.2646V38.9303H35.566V35.6289Z" fill="#578C76"/>
<path d="M42.1686 35.6289H38.8672V38.9303H42.1686V35.6289Z" fill="#578C76"/>
<path d="M14.6578 43.332H11.3564V46.6334H14.6578V43.332Z" fill="#578C76"/>
<path d="M20.1598 43.332H16.8584V46.6334H20.1598V43.332Z" fill="#578C76"/>
<path d="M25.6617 43.332H22.3604V46.6334H25.6617V43.332Z" fill="#578C76"/>
<path d="M59.921 28.3047H56.4746V31.7115H59.921V28.3047Z" fill="white"/>
<path d="M59.921 39.873H56.4746V43.2799H59.921V39.873Z" fill="white"/>
<path d="M59.921 52.1357H56.4746V55.5425H59.921V52.1357Z" fill="white"/>
<path d="M59.921 64.3984H56.4746V67.8052H59.921V64.3984Z" fill="white"/>
<path d="M34.0662 62.5222V75.9434H18.3584V62.5222C18.3584 58.2303 21.8647 54.7334 26.2123 54.7334C30.5599 54.7334 34.0662 58.2303 34.0662 62.5222Z" fill="white" stroke="#578C76" stroke-width="3"/>
</g>
<defs>
<clipPath id="clip0_753_2913">
<rect width="66.0274" height="78.1324" fill="white" transform="translate(0.351562 0.411133)"/>
</clipPath>
</defs>
</svg>
