<svg width="153" height="117" viewBox="0 0 153 117" fill="none" xmlns="http://www.w3.org/2000/svg">
<path d="M39.7646 98.7553H47.5529V116.466H51.264V98.7553H59.0571V95.0586H39.7646V98.7553Z" fill="#578C77"/>
<path d="M0.880859 98.7553H6.2305V112.774H0.880859V116.466H15.2863V112.774H9.93669V98.7553H15.2863V95.0586H0.880859V98.7553Z" fill="#578C77"/>
<path d="M37.1797 95.0586H33.488V110.037L22.4466 96.1484C21.9887 95.5003 21.2369 95.0778 20.3886 95.0586H17.8584V116.466H21.5694L21.579 101.497L32.5579 115.323L32.582 115.352C33.0494 116.024 33.8302 116.471 34.717 116.471H37.1797V95.0586Z" fill="#578C77"/>
<path d="M92.336 95.0575C90.8998 95.0575 89.7383 96.2145 89.7383 97.6452V113.877C89.7383 115.308 90.8998 116.465 92.336 116.465H109.031V112.835H93.377V107.573H109.031V103.944H93.377V98.6822H109.031V95.0527H92.336V95.0575Z" fill="#578C77"/>
<path d="M114.133 95.0575C112.697 95.0575 111.535 96.2145 111.535 97.6452V113.877C111.535 115.308 112.697 116.465 114.133 116.465H130.828V112.835H115.174V107.573H130.828V103.944H115.174V98.6822H130.828V95.0527H114.133V95.0575Z" fill="#578C77"/>
<path d="M152.649 95.0586H148.957V110.037L137.915 96.1484C137.457 95.5003 136.706 95.0778 135.857 95.0586H133.327V116.466H137.038L137.048 101.497L148.027 115.323L148.051 115.352C148.518 116.024 149.299 116.471 150.186 116.471H152.649V95.0586Z" fill="#578C77"/>
<path d="M83.5278 95.0586C83.5278 95.0586 83.5278 109.298 83.5278 109.303C83.5278 109.884 83.3254 110.412 83.0025 110.839C82.9832 110.868 82.2555 111.766 82.2555 111.766C81.8507 112.284 81.2482 112.63 80.5687 112.726H79.2578C78.5734 112.63 77.9758 112.284 77.5709 111.766C77.5709 111.766 76.848 110.868 76.8239 110.839C76.4962 110.412 76.2986 109.884 76.2986 109.303C76.2986 109.298 76.2986 95.0586 76.2986 95.0586H76.289H72.5876H72.5779C72.5779 95.0586 72.5779 109.298 72.5779 109.303C72.5779 109.884 72.3755 110.412 72.0526 110.839C72.0285 110.868 71.3056 111.766 71.3056 111.766C70.9008 112.284 70.2983 112.63 69.6188 112.726H68.3079C67.6235 112.63 67.0259 112.284 66.6211 111.766C66.6211 111.766 65.8981 110.868 65.874 110.839C65.5463 110.412 65.3487 109.884 65.3487 109.303C65.3487 109.298 65.3487 95.0586 65.3487 95.0586H61.6377V111.074C61.6377 111.602 61.7967 112.092 62.0715 112.505L64.6451 115.736C65.0885 116.163 65.6813 116.432 66.3415 116.461H71.5851C72.2454 116.432 72.8382 116.163 73.2816 115.736L74.4383 114.281L75.5949 115.736C76.0383 116.163 76.6311 116.432 77.2914 116.461H82.535C83.1953 116.432 83.7881 116.163 84.2315 115.736L86.8051 112.505C87.0798 112.097 87.2388 111.602 87.2388 111.074V95.0586H83.5278Z" fill="#578C77"/>
<path d="M54.0237 18.1801C58.5699 18.1801 62.2554 14.5089 62.2554 9.98021C62.2554 5.45151 58.5699 1.78027 54.0237 1.78027C49.4774 1.78027 45.792 5.45151 45.792 9.98021C45.792 14.5089 49.4774 18.1801 54.0237 18.1801Z" fill="#578C77"/>
<path d="M82.7125 67.1302L62.2586 45.795V32.6501C62.2586 28.1229 58.5717 24.4502 54.0269 24.4502C49.4821 24.4502 45.7952 28.1229 45.7952 32.6501V45.7806L25.3413 67.1302C22.2038 70.4092 22.3243 75.599 25.616 78.7243C28.9077 81.8497 34.1176 81.7297 37.2551 78.4507L54.0269 60.9274C60.7598 67.9607 70.8084 78.4507 70.8084 78.4507C73.9459 81.7297 79.1606 81.8497 82.4475 78.7243C85.7295 75.599 85.8548 70.4044 82.7125 67.1302Z" fill="#578C77"/>
<path d="M100.798 18.0771C105.286 17.3556 108.337 13.1466 107.613 8.67583C106.889 4.2051 102.663 1.16568 98.1752 1.88711C93.6871 2.60853 90.6359 6.8176 91.3601 11.2883C92.0843 15.7591 96.3097 18.7985 100.798 18.0771Z" fill="#F2B953"/>
<path d="M128.181 67.1292L107.722 45.7796V32.6492C107.722 28.1219 104.036 24.4492 99.4908 24.4492C94.946 24.4492 91.2591 28.1219 91.2591 32.6492V45.7796L70.8052 67.1292C67.6677 70.4082 67.7882 75.598 71.0799 78.7234C74.3716 81.8488 79.5815 81.7287 82.719 78.4497C82.719 78.4497 92.7628 67.9598 99.5004 60.9264L116.272 78.4497C119.41 81.7287 124.624 81.8488 127.911 78.7234C131.193 75.598 131.319 70.4034 128.181 67.1292Z" fill="#F2B953"/>
<path d="M82.5793 78.5892C79.3647 81.7914 74.15 81.7914 70.9354 78.5892C67.7208 75.387 67.7208 70.1924 70.9354 66.9902L76.7573 60.9219L82.5793 66.9902C85.7939 70.1924 85.7939 75.387 82.5793 78.5892Z" fill="#36B08C"/>
</svg>
