<svg width="6" height="9" viewBox="0 0 6 9" fill="none" xmlns="http://www.w3.org/2000/svg">
<path d="M1.31561 8.07951C0.79099 7.92765 0.372218 7.72977 0.0546875 7.48587L0.611517 6.25256C0.915241 6.47345 1.27419 6.65293 1.69296 6.79098C2.11173 6.92444 2.5305 6.99347 2.94928 6.99347C3.41407 6.99347 3.75921 6.92444 3.9801 6.78638C4.20099 6.64832 4.31604 6.46425 4.31604 6.23415C4.31604 6.06388 4.25161 5.92583 4.11816 5.81538C3.9847 5.70494 3.81903 5.6129 3.61195 5.54847C3.40486 5.48405 3.12875 5.40581 2.77901 5.32758C2.24058 5.19873 1.7988 5.06988 1.45366 4.94102C1.10852 4.81217 0.814 4.60509 0.565498 4.32437C0.316995 4.03905 0.197346 3.6617 0.197346 3.1923C0.197346 2.78274 0.307792 2.40538 0.533284 2.07405C0.754175 1.73811 1.09011 1.4758 1.5411 1.27792C1.99208 1.08464 2.53971 0.983398 3.18857 0.983398C3.63956 0.983398 4.08134 1.03862 4.51392 1.14446C4.9465 1.25031 5.32385 1.40677 5.64598 1.60926L5.13977 2.85637C4.48631 2.48361 3.82824 2.29954 3.17477 2.29954C2.71458 2.29954 2.37864 2.37317 2.15775 2.52043C1.93686 2.66769 1.83102 2.86557 1.83102 3.10947C1.83102 3.35337 1.95987 3.53284 2.21297 3.65249C2.46608 3.77214 2.85264 3.88719 3.37265 4.00224C3.91107 4.13109 4.35285 4.25994 4.69799 4.3888C5.04314 4.51765 5.33766 4.72013 5.58156 4.99625C5.83006 5.27236 5.94971 5.64971 5.94971 6.11911C5.94971 6.52407 5.83466 6.89222 5.60917 7.22816C5.38368 7.5641 5.04314 7.82641 4.59215 8.02429C4.14117 8.22217 3.58894 8.31881 2.94007 8.31881C2.37864 8.30961 1.83562 8.23137 1.31561 8.07951Z" fill="white"/>
</svg>
