<svg width="82" height="159" viewBox="0 0 82 159" fill="none" xmlns="http://www.w3.org/2000/svg">
<path d="M26.7601 157.091L8.60254 138.933L8.60255 2.57256" stroke="#CB5A5A" stroke-width="3"/>
<path d="M22.9587 59.786V60.444C22.9587 62.124 21.0547 63.72 18.4647 64.084L19.0387 65.274C21.9927 64.798 24.2467 62.894 24.2467 60.444V59.786H22.9587ZM23.2247 59.786V60.444C23.2247 62.88 25.4787 64.798 28.4327 65.274L29.0067 64.084C26.4167 63.72 24.4987 62.096 24.4987 60.444V59.786H23.2247ZM22.9587 67.374V72.162H24.4147V67.374H22.9587ZM17.9467 66.45V67.654H29.5107V66.45H17.9467ZM35.8656 65.792V67.696H37.3216V65.792H35.8656ZM30.8396 64.938V66.03H42.3616V64.938H30.8396ZM35.8656 59.324V60.864H37.3216V59.324H35.8656ZM35.7816 60.962V61.186C35.7816 62.348 34.1436 63.23 31.3716 63.37L31.7776 64.476C34.9276 64.266 37.0696 63.118 37.0696 61.186V60.962H35.7816ZM36.1176 60.962V61.186C36.1176 63.118 38.2596 64.266 41.3956 64.476L41.8156 63.37C39.0436 63.23 37.4056 62.348 37.4056 61.186V60.962H36.1176ZM31.9596 60.43V61.522H41.2276V60.43H31.9596ZM32.1836 67.024V68.102H39.4916V68.984H32.1976V71.392H33.6536V69.992H40.9336V67.024H32.1836ZM32.1976 70.958V72.05H41.2976V70.958H32.1976ZM52.1465 59.366V72.162H53.6165V59.366H52.1465ZM53.2805 64.28V65.512H55.6045V64.28H53.2805ZM44.1525 60.416V69.138H50.2285V60.416H48.7725V63.678H45.6085V60.416H44.1525ZM45.6085 64.826H48.7725V67.948H45.6085V64.826ZM56.5695 66.618V67.808H68.1615V66.618H56.5695ZM61.5955 67.374V72.162H63.0515V67.374H61.5955ZM62.3375 59.842C59.6495 59.842 57.8015 60.948 57.8015 62.684C57.8015 64.406 59.6495 65.512 62.3375 65.512C65.0395 65.512 66.8735 64.406 66.8735 62.684C66.8735 60.948 65.0395 59.842 62.3375 59.842ZM62.3375 61.018C64.1715 61.018 65.3755 61.648 65.3755 62.684C65.3755 63.72 64.1715 64.336 62.3375 64.336C60.5035 64.336 59.2995 63.72 59.2995 62.684C59.2995 61.648 60.5035 61.018 62.3375 61.018ZM78.6044 59.352V72.176H80.0744V59.352H78.6044ZM76.0704 64.392V65.596H78.9824V64.392H76.0704ZM72.5844 62.53V63.44C72.5844 65.512 71.3944 67.682 69.4344 68.606L70.2324 69.74C72.4024 68.718 73.7324 66.128 73.7324 63.44V62.53H72.5844ZM72.8784 62.53V63.44C72.8784 66.044 74.2364 68.536 76.4204 69.516L77.2044 68.396C75.2444 67.5 74.0264 65.428 74.0264 63.44V62.53H72.8784ZM69.8264 61.522V62.698H76.7424V61.522H69.8264ZM72.5704 59.632V62.152H74.0404V59.632H72.5704ZM25.8239 80.416V82.516C25.8239 84.882 24.5779 87.332 22.5899 88.298L23.4859 89.474C25.6839 88.354 27.0139 85.498 27.0139 82.516V80.416H25.8239ZM26.1039 80.416V82.516C26.1039 85.4 27.3779 88.13 29.5059 89.236L30.4019 88.074C28.4839 87.122 27.2799 84.798 27.2799 82.516V80.416H26.1039ZM31.2559 79.366V92.162H32.7259V79.366H31.2559ZM32.3899 84.434V85.652H34.7139V84.434H32.3899ZM42.1328 82.32V83.51H45.4648V82.32H42.1328ZM39.1928 79.926C37.2748 79.926 35.8608 81.172 35.8608 82.936C35.8608 84.7 37.2748 85.932 39.1928 85.932C41.1108 85.932 42.5248 84.7 42.5248 82.936C42.5248 81.172 41.1108 79.926 39.1928 79.926ZM39.1928 81.158C40.3128 81.158 41.1108 81.858 41.1108 82.936C41.1108 84 40.3128 84.714 39.1928 84.714C38.0728 84.714 37.2608 84 37.2608 82.936C37.2608 81.858 38.0728 81.158 39.1928 81.158ZM44.8208 79.366V86.24H46.2908V79.366H44.8208ZM37.9608 86.842V92.008H46.2908V86.842H44.8348V88.27H39.4168V86.842H37.9608ZM39.4168 89.418H44.8348V90.832H39.4168V89.418ZM60.7883 79.38V88.732H62.2583V79.38H60.7883ZM53.9003 90.72V91.91H62.6223V90.72H53.9003ZM53.9003 87.85V91.308H55.3703V87.85H53.9003ZM54.8943 80.08V81.354C54.8943 83.202 53.7883 85.036 51.7583 85.778L52.5143 86.954C54.8103 86.086 56.1123 83.846 56.1123 81.354V80.08H54.8943ZM55.1743 80.08V81.354C55.1743 83.804 56.4623 85.904 58.7163 86.716L59.4723 85.554C57.4843 84.868 56.3783 83.16 56.3783 81.354V80.08H55.1743ZM67.6332 81.578V82.082C67.6332 83.692 66.5272 85.204 64.5672 85.806L65.2672 86.954C67.5352 86.24 68.8232 84.308 68.8232 82.082V81.578H67.6332ZM67.8992 81.578V82.082C67.8992 84.182 69.2432 85.974 71.5392 86.632L72.1972 85.484C70.2372 84.938 69.1032 83.552 69.1032 82.082V81.578H67.8992ZM64.9452 80.808V81.984H71.7912V80.808H64.9452ZM67.6332 79.31V81.256H69.1032V79.31H67.6332ZM71.4132 82.908V84.098H74.1012V82.908H71.4132ZM73.7232 79.366V87.108H75.1932V79.366H73.7232ZM70.9232 87.388C68.2492 87.388 66.6112 88.256 66.6112 89.768C66.6112 91.266 68.2492 92.148 70.9232 92.148C73.5972 92.148 75.2352 91.266 75.2352 89.768C75.2352 88.256 73.5972 87.388 70.9232 87.388ZM70.9232 88.522C72.7432 88.522 73.7792 88.956 73.7792 89.768C73.7792 90.566 72.7432 91.014 70.9232 91.014C69.1032 91.014 68.0672 90.566 68.0672 89.768C68.0672 88.956 69.1032 88.522 70.9232 88.522Z" fill="#CB5A5A"/>
<path d="M2 9.1748L8.60274 2.57207L15.2055 9.17481" stroke="#CB5A5A" stroke-width="3"/>
</svg>
