<svg width="69" height="159" viewBox="0 0 69 159" fill="none" xmlns="http://www.w3.org/2000/svg">
<path d="M26.7601 1.57226L8.60254 19.7298L8.60255 156.091" stroke="#CB5A5A" stroke-width="3"/>
<path d="M37.2376 62.552V63.742H40.7096V62.552H37.2376ZM33.9756 59.416V61.516C33.9756 63.91 32.7436 66.374 30.7276 67.34L31.6516 68.516C33.8496 67.382 35.1656 64.526 35.1656 61.516V59.416H33.9756ZM34.2696 59.416V61.516C34.2696 64.484 35.5436 67.186 37.7556 68.292L38.6376 67.116C36.6636 66.206 35.4456 63.882 35.4456 61.516V59.416H34.2696ZM39.9816 58.352V71.176H41.4376V58.352H39.9816ZM52.7625 58.352V71.176H54.2325V58.352H52.7625ZM44.3765 59.416V68.138H50.5225V59.416H49.0665V62.678H45.8325V59.416H44.3765ZM45.8325 63.826H49.0665V66.948H45.8325V63.826ZM61.5395 59.178V60.144C61.5395 62.16 59.4955 64.148 56.9615 64.61L57.6055 65.828C60.4895 65.212 62.8135 62.916 62.8135 60.144V59.178H61.5395ZM61.8195 59.178V60.144C61.8195 62.944 64.1435 65.212 67.0275 65.828L67.6715 64.61C65.1375 64.148 63.0935 62.188 63.0935 60.144V59.178H61.8195ZM56.5835 68.306V69.51H68.1755V68.306H56.5835ZM46.3371 78.38V87.732H47.8071V78.38H46.3371ZM39.4491 89.72V90.91H48.1711V89.72H39.4491ZM39.4491 86.85V90.308H40.9191V86.85H39.4491ZM40.4431 79.08V80.354C40.4431 82.202 39.3371 84.036 37.3071 84.778L38.0631 85.954C40.3591 85.086 41.6611 82.846 41.6611 80.354V79.08H40.4431ZM40.7231 79.08V80.354C40.7231 82.804 42.0111 84.904 44.2651 85.716L45.0211 84.554C43.0331 83.868 41.9271 82.16 41.9271 80.354V79.08H40.7231ZM53.182 80.578V81.082C53.182 82.692 52.076 84.204 50.116 84.806L50.816 85.954C53.084 85.24 54.372 83.308 54.372 81.082V80.578H53.182ZM53.448 80.578V81.082C53.448 83.182 54.792 84.974 57.088 85.632L57.746 84.484C55.786 83.938 54.652 82.552 54.652 81.082V80.578H53.448ZM50.494 79.808V80.984H57.34V79.808H50.494ZM53.182 78.31V80.256H54.652V78.31H53.182ZM56.962 81.908V83.098H59.65V81.908H56.962ZM59.272 78.366V86.108H60.742V78.366H59.272ZM56.472 86.388C53.798 86.388 52.16 87.256 52.16 88.768C52.16 90.266 53.798 91.148 56.472 91.148C59.146 91.148 60.784 90.266 60.784 88.768C60.784 87.256 59.146 86.388 56.472 86.388ZM56.472 87.522C58.292 87.522 59.328 87.956 59.328 88.768C59.328 89.566 58.292 90.014 56.472 90.014C54.652 90.014 53.616 89.566 53.616 88.768C53.616 87.956 54.652 87.522 56.472 87.522Z" fill="#CB5A5A"/>
<path d="M2 149.488L8.60274 156.091L15.2055 149.488" stroke="#CB5A5A" stroke-width="3"/>
</svg>
